<?xml version="1.0" encoding="utf-8"?>
<!-- Generator: Adobe Illustrator 21.0.0, SVG Export Plug-In . SVG Version: 6.00 Build 0)  -->
<svg version="1.1" id="Layer_1" xmlns="http://www.w3.org/2000/svg" xmlns:xlink="http://www.w3.org/1999/xlink" x="0px" y="0px"
	 width="48px" height="60px" viewBox="0 0 48 60" style="enable-background:new 0 0 48 60;" xml:space="preserve">
<style type="text/css">
	.st0{font-family:'Arial-BoldMT';}
	.st1{font-size:5px;}
	.st2{font-family:'LithosPro-Regular';}
	.st3{font-size:24px;}
</style>
<g>
	<path d="M42.2,43.8L29.8,23.8v-9.9h-2V24c0,0.2,0.1,0.4,0.1,0.5l12.5,20.4c0.9,1.6,1,3.3,0.1,4.8c-0.8,1.5-2.4,2.4-4.1,2.4H11.5
		c-1.7,0-3.2-0.9-4.1-2.4c-0.8-1.5-0.8-3.3,0.1-4.7L20,24.5c0.1-0.2,0.1-0.3,0.1-0.5V13.9c0,0,0,0,0,0c0,0,0,0,0,0c0,0,0,0,0,0h-1.8
		v9.8L5.8,43.8c-1.3,2.1-1.3,4.6-0.1,6.7c1.2,2.1,3.4,3.4,5.8,3.4h24.9c2.4,0,4.6-1.3,5.8-3.4C43.5,48.5,43.4,46,42.2,43.8z"/>
</g>
<text transform="matrix(1 0 0 1 0 63)" class="st0 st1">Created by Vectors Market</text>
<text transform="matrix(1 0 0 1 0 68)" class="st0 st1">from the Noun Project</text>
<text transform="matrix(0.9488 -0.3158 0.3158 0.9488 20.3272 50.0584)" class="st2 st3">E</text>
</svg>
