<?xml version="1.0" encoding="utf-8"?>
<!-- Generator: Adobe Illustrator 21.0.0, SVG Export Plug-In . SVG Version: 6.00 Build 0)  -->
<svg version="1.1" id="Layer_1" xmlns="http://www.w3.org/2000/svg" xmlns:xlink="http://www.w3.org/1999/xlink" x="0px" y="0px"
	 width="149.2px" height="172.2px" viewBox="0 0 149.2 172.2" style="enable-background:new 0 0 149.2 172.2;" xml:space="preserve"
	>
<style type="text/css">
	.st0{fill:#585858;}
	.st1{fill:#FFFFFF;stroke:#FFFFFF;stroke-width:6;stroke-miterlimit:10;}
	.st2{fill:#FFFFFF;stroke:#FFFFFF;stroke-miterlimit:10;}
	.st3{font-family:'LithosPro-Regular';}
	.st4{font-size:71.433px;}
</style>
<polygon class="st0" points="149.2,129.2 74.6,172.2 0,129.2 0,43.1 74.6,0 149.2,43.1 "/>
<g>
	<path class="st1" d="M124.8,107.7L90.6,52.3V25.1h-5.5v27.8c0,0.6,0.3,1.1,0.3,1.4l34.4,56.2c2.5,4.4,2.8,9.1,0.3,13.2
		c-2.2,4.1-6.6,6.6-11.3,6.6H40.2c-4.7,0-8.8-2.5-11.3-6.6c-2.2-4.1-2.2-9.1,0.3-12.9l34.4-56.2c0.3-0.6,0.3-0.8,0.3-1.4v-28
		c0,0,0-0.1,0-0.1c0,0,0,0-0.1,0c0,0,0,0-0.1,0h-5.1v27l-34.2,55.6c-3.6,5.8-3.6,12.7-0.3,18.5c3.3,5.8,9.4,9.4,16,9.4h68.6
		c6.6,0,12.7-3.6,16-9.4C128.4,120.6,128.1,113.5,124.8,107.7z"/>
</g>
<text transform="matrix(0.9488 -0.3158 0.3158 0.9488 65.8844 126.6523)" class="st2 st3 st4">E</text>
</svg>
