<?xml version="1.0" encoding="utf-8"?>
<!-- Generator: Adobe Illustrator 21.0.0, SVG Export Plug-In . SVG Version: 6.00 Build 0)  -->
<svg version="1.1" id="Layer_1" xmlns="http://www.w3.org/2000/svg" xmlns:xlink="http://www.w3.org/1999/xlink" x="0px" y="0px"
	 width="149.2px" height="172.2px" viewBox="0 0 149.2 172.2" style="enable-background:new 0 0 149.2 172.2;" xml:space="preserve"
	>
<style type="text/css">
	.st0{fill:#585858;}
	.st1{fill:#FFFFFF;stroke:#FFFFFF;stroke-width:6;stroke-miterlimit:10;}
	.st2{fill:#FFFFFF;stroke:#FFFFFF;stroke-miterlimit:10;}
	.st3{font-family:'LithosPro-Regular';}
	.st4{font-size:52.1208px;}
</style>
<polygon class="st0" points="149.2,129.3 74.6,172.4 0,129.3 0,43.2 74.6,0.1 149.2,43.2 "/>
<g>
	<path class="st1" d="M113.9,104L87.2,60.7V39.3h-4.3v21.8c0,0.4,0.2,0.9,0.2,1.1l27,44c1.9,3.5,2.2,7.1,0.2,10.4
		c-1.7,3.2-5.2,5.2-8.8,5.2H47.7c-3.7,0-6.9-1.9-8.8-5.2c-1.7-3.2-1.7-7.1,0.2-10.1l27-44c0.2-0.4,0.2-0.6,0.2-1.1V39.4
		c0,0,0-0.1,0-0.1c0,0,0,0-0.1,0c0,0,0,0-0.1,0h-4v21.1L35.4,104c-2.8,4.5-2.8,9.9-0.2,14.5c2.6,4.5,7.3,7.3,12.5,7.3h53.7
		c5.2,0,9.9-2.8,12.5-7.3C116.7,114.2,116.5,108.6,113.9,104z"/>
</g>
<text transform="matrix(0.9488 -0.3158 0.3158 0.9488 68.1831 116.8052)" class="st2 st3 st4">E</text>
</svg>
